<?xml version="1.0" encoding="UTF-8"?>
<svg version="1.1" xmlns="http://www.w3.org/2000/svg" width="1000" height="260">
<path d="M0 0 C0.886875 0.721875 1.77375 1.44375 2.6875 2.1875 C6.52643675 6.85647713 9.09256074 12.27768222 11 18 C11.21914063 17.443125 11.43828125 16.88625 11.6640625 16.3125 C15.80869903 6.33841534 20.83623559 -0.61956069 31 -5 C41.23372901 -8.05121736 49.96535696 -6.99346267 59.30859375 -2 C60.90642479 -1.05532391 62.45554858 -0.02963428 64 1 C64.99 -0.98 65.98 -2.96 67 -5 C69.14576637 -5.02685938 71.29162645 -5.04633088 73.4375 -5.0625 C74.63246094 -5.07410156 75.82742188 -5.08570312 77.05859375 -5.09765625 C80 -5 80 -5 81 -4 C81.11515294 -2.01385354 81.15968698 -0.02358617 81.17700195 1.96582031 C81.19625481 3.88482147 81.19625481 3.88482147 81.21589661 5.84259033 C81.2240717 7.25443127 81.23151395 8.66627661 81.23828125 10.078125 C81.24235678 10.78913109 81.2464323 11.50013718 81.25063133 12.2326889 C81.27153824 16.00831311 81.28581022 19.78390066 81.29516602 23.55957031 C81.30613797 27.42934888 81.34041479 31.29853754 81.38033772 35.16810989 C81.40673628 38.16592333 81.414879 41.16360253 81.41844749 44.16152191 C81.42326731 45.58543555 81.43474682 47.00934512 81.45348549 48.43314362 C81.57882867 58.60330288 81.1371857 70.01365237 74.75 78.5 C65.40204785 86.99813832 55.90969692 88.57891791 43.65625 88.31640625 C33.59800449 87.82299068 24.43783115 84.44664233 16 79 C16.57823096 74.93774452 17.89117737 72.15237654 20.0625 68.6875 C20.88427734 67.36298828 20.88427734 67.36298828 21.72265625 66.01171875 C22.14417969 65.34785156 22.56570313 64.68398437 23 64 C26.9227646 64.41292259 30.11115102 65.42572198 33.6875 67 C40.12030756 69.64481395 47.23181052 71.33130175 54 68.9375 C57.61924237 66.60007264 58.66656181 65.07875211 60 61 C60.25144312 57.24926796 60.25144312 57.24926796 60 54 C59.13375 54.61875 58.2675 55.2375 57.375 55.875 C49.75036714 60.67569477 41.81538078 61.28973252 33.05859375 59.34765625 C25.16574293 56.78988957 20.03237549 52.52411206 14.6875 46.3125 C13 43 13 43 10 31 C-4.52 31.33 -19.04 31.66 -34 32 C-31.21402546 38.92290011 -31.21402546 38.92290011 -26 43 C-17.58153917 45.80615361 -11.05314544 42.95419512 -3.5 39.3125 C-2.675 38.879375 -1.85 38.44625 -1 38 C5.79245283 44.60377358 5.79245283 44.60377358 8 48 C7.875 50.4609375 7.875 50.4609375 7 53 C-0.83118334 59.99327895 -11.97349132 62.63268361 -22.23828125 62.28125 C-31.87519559 61.29983864 -39.15958704 58.31345332 -45.71875 51.11328125 C-52.30306121 42.89903026 -54.18197952 34.48202058 -54 24 C-52.67057562 13.46786123 -48.2122561 4.83991108 -39.84375 -1.78515625 C-28.12065641 -9.50948274 -10.83618351 -8.8448085 0 0 Z M-31 13 C-31.66 14.65 -32.32 16.3 -33 18 C-25.08 18 -17.16 18 -9 18 C-10.05539776 13.77840895 -10.80195227 12.72774659 -14 10 C-20.83505061 7.7216498 -25.37603102 8.91986564 -31 13 Z M32.6875 17.5625 C29.81589444 21.71037469 29.59359111 25.04181157 30 30 C31.42500515 34.36458721 33.28050918 37.34743856 36.6875 40.4375 C41.51878123 42.71640624 45.97051514 43.90831116 51.21484375 42.3359375 C55.53862648 40.35521021 58.39502841 38.06375567 61 34 C62.78816966 28.63549101 62.68834152 23.89615476 60.4375 18.75 C58.11963382 14.64729609 55.5281805 12.37477966 51 11 C42.97143618 9.77853863 38.19412044 11.46056924 32.6875 17.5625 Z " fill="#000000" transform="translate(463,104)"/>
<path d="M0 0 C0 -1.65 0 -3.3 0 -5 C6.27 -5 12.54 -5 19 -5 C29.95744681 15.72340426 29.95744681 15.72340426 34 24 C36.39772492 21.04047776 37.93756109 18.1550794 39.41015625 14.6484375 C39.84263672 13.63265625 40.27511719 12.616875 40.72070312 11.5703125 C41.38489258 9.98863281 41.38489258 9.98863281 42.0625 8.375 C42.94481778 6.27678975 43.83133632 4.18033949 44.72265625 2.0859375 C45.30672241 0.6944751 45.30672241 0.6944751 45.90258789 -0.72509766 C47 -3 47 -3 49 -5 C50.97119141 -5.22705078 50.97119141 -5.22705078 53.3515625 -5.1953125 C54.20234375 -5.18886719 55.053125 -5.18242188 55.9296875 -5.17578125 C57.26386719 -5.15064453 57.26386719 -5.15064453 58.625 -5.125 C59.97078125 -5.11146484 59.97078125 -5.11146484 61.34375 -5.09765625 C63.56276586 -5.0740497 65.78125077 -5.0411231 68 -5 C67.49238536 0.84572476 65.76282454 5.19601979 63.1328125 10.40625 C62.74217117 11.19991974 62.35152985 11.99358948 61.9490509 12.81130981 C60.68317705 15.37867054 59.40408651 17.93920046 58.125 20.5 C57.2483393 22.27338685 56.3727743 24.04731576 55.49829102 25.82177734 C53.77757232 29.31228362 52.05308594 32.80088293 50.32568359 36.28808594 C47.47937234 42.04333103 44.69543638 47.82685956 41.9375 53.625 C41.51944092 54.50051514 41.10138184 55.37603027 40.6706543 56.27807617 C38.49516356 60.83881096 36.33679319 65.40733225 34.1875 69.98046875 C33.72609619 70.95870605 33.26469238 71.93694336 32.78930664 72.94482422 C31.91227374 74.80533144 31.0388434 76.66754278 30.16967773 78.53173828 C29.78239502 79.35270996 29.3951123 80.17368164 28.99609375 81.01953125 C28.65763428 81.74245361 28.3191748 82.46537598 27.97045898 83.21020508 C27 85 27 85 25 87 C23.12060547 87.22705078 23.12060547 87.22705078 20.8671875 87.1953125 C20.06152344 87.18886719 19.25585938 87.18242187 18.42578125 87.17578125 C17.58402344 87.15902344 16.74226562 87.14226562 15.875 87.125 C15.02550781 87.11597656 14.17601562 87.10695313 13.30078125 87.09765625 C11.20040116 87.07405647 9.10016556 87.03818483 7 87 C6 84 6 84 7.46289062 80.63354492 C8.18496418 79.24444629 8.91678321 77.8603869 9.65625 76.48046875 C10.43910839 74.96825749 11.22165056 73.45588249 12.00390625 71.94335938 C13.24945096 69.56396148 14.50003967 67.18742513 15.75732422 64.81420898 C16.96673438 62.52243156 18.15608451 60.22107131 19.34375 57.91796875 C19.72390259 57.21463913 20.10405518 56.51130951 20.49572754 55.78666687 C22.0986577 52.6589003 23.00384141 50.59074992 22.98071289 47.03393555 C21.67313747 42.98881738 19.90461032 39.31553289 17.96484375 35.5390625 C17.36767296 34.3532106 17.36767296 34.3532106 16.75843811 33.1434021 C15.4922897 30.6333933 14.21509765 28.12919724 12.9375 25.625 C12.0741333 23.91834113 11.21149498 22.21131357 10.34960938 20.50390625 C8.24148324 16.33162122 6.12343834 12.16451148 4 8 C2.8944811 8.93590504 1.79064547 9.87379858 0.6875 10.8125 C0.07261719 11.33457031 -0.54226563 11.85664062 -1.17578125 12.39453125 C-3.01512439 13.96047733 -3.01512439 13.96047733 -4.58984375 15.703125 C-6 17 -6 17 -8.25 16.9375 C-11 16 -11 16 -14.1875 13.9375 C-18.62533772 11.29223865 -22.9675598 11.16956432 -28 12 C-33.13308791 14.61320839 -36.1797908 17.53937241 -38 23 C-38.73056691 29.85056181 -38.18454943 34.4582994 -34 40 C-29.9980778 43.43021903 -25.17837878 44.30967049 -20 44 C-16.06896952 42.68518435 -12.93030254 40.93030254 -10 38 C-5.47709334 38.21320099 -3.26709546 40.1388104 -0.125 43.25 C1.07769531 44.40242188 1.07769531 44.40242188 2.3046875 45.578125 C4 48 4 48 4 50.6015625 C2.13399692 55.07705427 -1.82537853 56.86357607 -6 59 C-15.82122893 62.87071964 -26.97069067 63.60428304 -37 60 C-45.48030522 56.09110931 -53.15163918 49.94230314 -56.9375 41.1875 C-60.09875548 30.75329073 -59.56906186 20.32056779 -54.77734375 10.4921875 C-50.01267057 2.66166612 -43.11147647 -3.03974533 -34.234375 -5.50390625 C-21.94053918 -8.23348169 -10.88424664 -6.43718424 0 0 Z " fill="#000000" transform="translate(664,104)"/>
<path d="M0 0 C0.66 0.66 1.32 1.32 2 2 C2.99 -0.31 3.98 -2.62 5 -5 C9.62 -5 14.24 -5 19 -5 C19.06797852 3.97142118 19.12293249 12.9426692 19.15543652 21.91429043 C19.17104268 26.08089767 19.19218772 30.24731842 19.22631836 34.41381836 C19.25909322 38.44035214 19.27689092 42.46670738 19.28463173 46.49336433 C19.2901429 48.02384308 19.30090435 49.55431288 19.31719017 51.08471489 C19.43953628 63.06639882 18.76555808 72.01543698 10.1875 81.05078125 C1.56480494 88.73421846 -8.93345701 88.51618288 -19.89208984 88.13183594 C-29.3336019 87.54133136 -37.02658139 83.84997313 -45 79 C-44.47247509 74.81618173 -43.58131511 71.75299481 -41.4375 68.125 C-40.75494141 66.95324219 -40.75494141 66.95324219 -40.05859375 65.7578125 C-39.70925781 65.17773438 -39.35992187 64.59765625 -39 64 C-34.07097056 64.5188452 -29.97393686 66.1249434 -25.46484375 68.0625 C-18.38278175 70.75615274 -11.04875774 70.90242966 -4 68 C-1.1228727 63.81508757 -1.36574496 57.95680667 -1 53 C-1.66 53.598125 -2.32 54.19625 -3 54.8125 C-10.2074332 60.06792004 -17.26969209 60.9908294 -26 60 C-35.08873407 57.80168461 -41.67067799 53.83773302 -46.8984375 45.99609375 C-52.1960039 36.39660287 -52.47678232 25.22638039 -49.5625 14.8125 C-46.7329935 7.23704819 -41.39809435 0.93923292 -34.625 -3.5 C-22.76512263 -8.40753546 -10.30576594 -8.24461275 0 0 Z M-28.3125 16.5625 C-31.74432775 21.51958453 -31.60249058 26.08387719 -31 32 C-28.81473658 36.45146251 -26.0605479 39.18885145 -22 42 C-16.95195496 43.68268168 -12.67916054 43.56212419 -7.8125 41.4375 C-2.58826357 38.57226955 -0.88874849 34.72549537 0.9375 29.125 C1.03844405 24.07779738 -0.04383308 19.20068779 -3.46875 15.34765625 C-8.2615809 11.29489482 -11.37559147 10.70623966 -17.4609375 10.78515625 C-22.33232125 11.19735026 -25.09312436 12.99508375 -28.3125 16.5625 Z " fill="#000000" transform="translate(326,104)"/>
<path d="M0 0 C8.58115161 5.19790187 16.57036848 12.9277739 21 22 C21 22.66 21 23.32 21 24 C24.34788426 22.16406347 27.23719384 20.02604703 30.1875 17.625 C41.34243993 8.84582099 52.87329452 5.80895439 67 7 C74.56524207 8.83366535 80.91382604 13.83166115 85.50390625 20.03125 C92.18769269 31.04453392 93.32819549 43.17090278 90.8125 55.5625 C86.39057094 72.9649305 72.6023129 84.70820408 57.875 94 C55.5926016 95.35492202 53.30742904 96.68962352 51 98 C50.36852051 98.3609375 49.73704102 98.721875 49.08642578 99.09375 C40.750291 103.80930476 32.23676351 107.92656936 23.375 111.5625 C22.54605225 111.90925781 21.71710449 112.25601563 20.86303711 112.61328125 C16.11829115 114.49594089 12.17445777 115.75499206 7 115 C3.96484375 113.234375 3.96484375 113.234375 0.9375 110.75 C0.38803711 110.30470947 -0.16142578 109.85941895 -0.72753906 109.40063477 C-2.5012174 107.95219756 -4.25117139 106.47830743 -6 105 C-7.21216379 103.99339831 -8.42440374 102.98688831 -9.63671875 101.98046875 C-27.67993948 86.8723693 -48.79544899 66.60160512 -52 42 C-52.29560864 35.98929095 -51.50758249 30.81496105 -50 25 C-44.76973642 27.18297018 -43.12994315 30.92936114 -41 36 C-40.33516003 38.42693615 -39.71281871 40.8657674 -39.125 43.3125 C-35.82186947 56.89617941 -27.34237967 67.91458655 -17.4375 77.5625 C-16.633125 78.366875 -15.82875 79.17125 -15 80 C-15 80.66 -15 81.32 -15 82 C-14.41089844 82.2578125 -13.82179688 82.515625 -13.21484375 82.78125 C-10.81549867 84.10152454 -9.41188034 85.48998306 -7.5625 87.5 C-4.0191158 91.1098642 -0.31249536 94.39590826 3.625 97.5625 C4.16310303 98.01625 4.70120605 98.47 5.25561523 98.9375 C7.91779605 101.02912623 9.51699148 102.00577301 12.94140625 101.96484375 C16.49990479 100.84230334 19.91319952 99.52839391 23.3125 98 C24.3475769 97.53859619 24.3475769 97.53859619 25.40356445 97.06787109 C57.29960827 82.7045486 57.29960827 82.7045486 78.06640625 56.18359375 C80.74867275 46.95804035 80.83003649 38.30564837 76.75 29.5 C74.1673333 24.86901143 71.39660393 22.36948796 66.8125 19.75 C57.69000319 17.31733418 50.14544128 19.58249877 42 24 C34.97136927 28.48938552 30.33729482 33.75875632 25.88671875 40.77734375 C24 43 24 43 21.51953125 44.00390625 C19 44 19 44 16.8046875 42.87890625 C14.65280653 40.63852801 14.02062605 38.90159573 13.125 35.9375 C9.56705161 25.45747303 3.85720634 15.80818274 -6.25 10.625 C-11.80924751 8.06774615 -17.26506429 6.6575498 -23.1953125 8.7890625 C-26.01277874 10.15101112 -28.38042916 11.34278434 -30.54296875 13.63671875 C-32 15 -32 15 -35 15 C-37.93952555 12.41041797 -39.75122171 10.74633486 -41 7 C-29.52153211 -5.15367188 -15.0052241 -7.57316953 0 0 Z " fill="#C8B492" transform="translate(904,70)"/>
<path d="M0 0 C10.56134295 7.46226162 18.26705675 18.69323143 20.53125 31.5390625 C21.36383257 38.89801814 20.45448317 45.49021541 18.7734375 52.6796875 C12.30748675 47.41113504 9.84404645 39.33616954 7.7734375 31.5546875 C5.1661529 22.00499032 1.06117045 15.32905942 -7.2265625 9.6796875 C-12.80427332 6.84207588 -18.18629039 5.75397699 -24.2265625 7.6796875 C-32.53987071 11.34131475 -37.15660983 17.69784032 -40.5390625 25.9296875 C-43.11461666 32.75436267 -43.47698119 38.84877661 -43.75 46.1484375 C-44.22901117 49.69783171 -44.79689725 51.13308649 -47.2265625 53.6796875 C-52.95010464 53.44120658 -55.58321803 51.86582386 -59.98046875 48.30859375 C-69.20502983 41.61878163 -79.08413313 39.91174373 -90.2265625 40.6796875 C-95.98770594 41.72455378 -99.50011339 44.24545647 -103.0390625 48.87109375 C-106.8401644 54.66027197 -106.93310703 60.96304262 -106.2265625 67.6796875 C-104.01255362 77.31791778 -99.16269113 85.43488388 -90.7890625 90.8671875 C-71.51722544 101.37645212 -49.78522892 104.61975713 -28.2265625 106.6796875 C-26.9375 106.83953125 -25.6484375 106.999375 -24.3203125 107.1640625 C-20.96965405 106.96385049 -20.96965405 106.96385049 -18.671875 103.9609375 C-17.87156282 102.7174118 -17.09959113 101.45534768 -16.3515625 100.1796875 C-15.93302002 99.50768311 -15.51447754 98.83567871 -15.08325195 98.14331055 C-13.76699765 96.00566602 -12.4935944 93.84681263 -11.2265625 91.6796875 C-10.8155127 90.99084473 -10.40446289 90.30200195 -9.98095703 89.59228516 C-4.99651175 81.21434489 -0.67026171 72.81673867 2.7734375 63.6796875 C5.7734375 66.6796875 8.7734375 69.6796875 11.7734375 72.6796875 C10.19174883 78.08523888 7.77531734 82.85239732 5.1484375 87.8046875 C4.7040332 88.64491455 4.25962891 89.4851416 3.80175781 90.35083008 C0.18296299 97.09818571 -3.75268063 103.45849555 -8.2265625 109.6796875 C-8.80664062 110.494375 -9.38671875 111.3090625 -9.984375 112.1484375 C-13.89519131 117.5140019 -13.89519131 117.5140019 -16.2265625 118.6796875 C-43.66611032 120.79668525 -79.85450377 114.73230292 -102.2265625 97.6796875 C-111.53308583 89.35644268 -117.46289877 78.39078188 -118.5625 65.84765625 C-118.64235167 57.71077086 -118.2989866 50.92403267 -114.2265625 43.6796875 C-113.88753906 43.03644531 -113.54851563 42.39320312 -113.19921875 41.73046875 C-109.32053256 35.36721489 -102.77386726 31.89247664 -95.87890625 29.53515625 C-81.8637024 26.25245075 -67.99687727 29.59858523 -55.2265625 35.6796875 C-55.1646875 34.6278125 -55.1028125 33.5759375 -55.0390625 32.4921875 C-53.71367116 22.25217769 -49.24146344 13.16322482 -42.2265625 5.6796875 C-41.61941406 5.03128906 -41.01226563 4.38289063 -40.38671875 3.71484375 C-28.79580257 -7.49681955 -13.53567131 -8.02641562 0 0 Z " fill="#C8B492" transform="translate(858.2265625,78.3203125)"/>
<path d="M0 0 C2.93902349 -0.13481759 5.87189559 -0.23399416 8.8125 -0.3125 C10.06256836 -0.3753418 10.06256836 -0.3753418 11.33789062 -0.43945312 C12.14033203 -0.45556641 12.94277344 -0.47167969 13.76953125 -0.48828125 C14.50792236 -0.51446533 15.24631348 -0.54064941 16.00708008 -0.56762695 C18 0 18 0 19.58203125 2.10351562 C21.15020915 5.30683218 22.56567934 8.53128184 23.91796875 11.83203125 C24.31113029 12.7869471 24.31113029 12.7869471 24.7122345 13.76115417 C25.54109795 15.77674416 26.364377 17.7945599 27.1875 19.8125 C27.75158444 21.18700032 28.31603391 22.5613509 28.88085938 23.93554688 C30.25813224 27.28864311 31.63040937 30.64375741 33 34 C36.56764405 27.20567556 39.39090517 20.20387798 42.1875 13.0625 C43.074506 10.80247471 43.96370575 8.54330875 44.85546875 6.28515625 C45.24371826 5.29394775 45.63196777 4.30273926 46.03198242 3.28149414 C47 1 47 1 48 0 C50.81140151 -0.0886126 53.59879424 -0.11529584 56.41015625 -0.09765625 C57.15616089 -0.09664917 57.90216553 -0.09564209 58.67077637 -0.09460449 C61.46803313 -0.08935689 64.26526804 -0.07539573 67.0625 -0.0625 C73.311875 -0.041875 79.56125 -0.02125 86 0 C86 21.45 86 42.9 86 65 C79.73 65 73.46 65 67 65 C66.505 36.29 66.505 36.29 66 7 C57.52608304 23.87842456 57.52608304 23.87842456 49.3125 40.875 C44.98945521 49.97594162 40.55273376 59.01193822 36 68 C34.35 68 32.7 68 31 68 C24.61822303 56.13626278 18.5813863 44.15149326 12.83203125 31.96875 C10.86648688 27.80398065 8.85942629 23.66241755 6.82421875 19.53125 C6.05259399 17.9539209 6.05259399 17.9539209 5.26538086 16.34472656 C4.27243703 14.31692633 3.27220172 12.29267656 2.26391602 10.27246094 C1.82104248 9.36270508 1.37816895 8.45294922 0.921875 7.515625 C0.52581055 6.71415039 0.12974609 5.91267578 -0.27832031 5.08691406 C-1 3 -1 3 0 0 Z " fill="#000000" transform="translate(118,99)"/>
<path d="M0 0 C7.5097654 7.15553118 10.73702203 15.23001807 11 25.5 C10.89291678 35.18508276 7.51348878 43.92711856 0.6875 50.875 C-7.72060791 58.10071774 -17.45868439 60.49546715 -28.3984375 60.15625 C-38.38138811 59.19274806 -46.74638534 54.93460555 -53.625 47.625 C-60.79225288 38.40140437 -61.60669436 28.16026156 -60.3125 16.875 C-58.54877852 8.76605568 -53.92341332 2.03194936 -47.0703125 -2.66015625 C-31.78381971 -11.48720511 -13.83081351 -11.58023735 0 0 Z M-36.3125 12.875 C-40.39452469 18.28092459 -41.76441442 22.09628366 -41.3125 28.875 C-39.61547559 34.0553903 -37.55054559 37.425428 -33.3125 40.875 C-28.5381172 43.2091427 -24.35580759 43.27424103 -19.3125 41.875 C-14.23423791 39.09632829 -11.14935977 36.38557931 -9.3125 30.875 C-8.61520638 23.69630502 -8.93863601 18.70681866 -13.3125 12.875 C-17.72779562 8.86109489 -22.04899579 8.522203 -27.80859375 8.59765625 C-31.55246028 9.01234349 -33.54577627 10.37177377 -36.3125 12.875 Z " fill="#000000" transform="translate(110.3125,106.125)"/>
<path d="M0 0 C5.54091711 5.41778562 8.09506684 11.4629314 8.35644531 19.11499023 C8.36265575 21.01287139 8.35248742 22.91085881 8.328125 24.80859375 C8.32625183 25.81592056 8.32437866 26.82324738 8.32244873 27.86109924 C8.31576205 29.97473496 8.30191563 32.08835903 8.28125 34.2019043 C8.24986212 37.4517759 8.24025161 40.70116313 8.234375 43.95117188 C8.22521359 46.00781847 8.21484058 48.06446011 8.203125 50.12109375 C8.19675018 51.58499794 8.19675018 51.58499794 8.19024658 53.07847595 C8.18063904 53.97353348 8.17103149 54.868591 8.16113281 55.79077148 C8.15430481 56.58160629 8.14747681 57.3724411 8.14044189 58.1872406 C8 60 8 60 7 61 C4.88115293 61.20429655 2.7527973 61.31393738 0.625 61.375 C-0.53773438 61.42398438 -1.70046875 61.47296875 -2.8984375 61.5234375 C-6 61 -6 61 -7.9140625 58.4765625 C-8.27242187 57.65929687 -8.63078125 56.84203125 -9 56 C-9.59167969 56.42152344 -10.18335938 56.84304687 -10.79296875 57.27734375 C-11.58316406 57.82519531 -12.37335937 58.37304688 -13.1875 58.9375 C-13.96480469 59.48277344 -14.74210938 60.02804688 -15.54296875 60.58984375 C-21.22574402 63.85134116 -28.33885083 63.91528729 -34.59375 62.3515625 C-40.58001999 60.24194326 -44.75597888 57.53857264 -48 52 C-50.6964632 45.85457225 -50.52060474 39.33589581 -48.31640625 33.05078125 C-45.29893849 26.86832508 -39.95837758 24.21815548 -33.8125 21.6875 C-26.61635989 20.38983539 -19.14074829 20.34090421 -12 22 C-12.44086875 19.01188959 -12.80399849 16.72452362 -14 14 C-18.88995114 10.63815859 -22.80641503 10.75619641 -28.57421875 11.53515625 C-31.25584211 12.00817953 -31.25584211 12.00817953 -34.8125 13.125 C-38.07991533 14.02193754 -39.80004808 13.9696824 -43 13 C-46.44419134 3.58997722 -46.44419134 3.58997722 -46 -1 C-32.69303041 -7.09902773 -12.38077453 -9.13532878 0 0 Z M-28.875 37.25 C-30.63904404 39.99406851 -30.51909509 41.82054256 -30 45 C-27.42508211 47.8778494 -25.82873426 48.87914292 -22 49.4375 C-17.90054149 48.8396623 -15.20329417 47.60439223 -12.6875 44.25 C-11.73460488 41.13143415 -11.87547493 38.23765175 -12 35 C-18.35937144 33.9542367 -23.25629566 33.5041971 -28.875 37.25 Z " fill="#000000" transform="translate(596,103)"/>
<path d="M0 0 C5.97901127 6.14984017 7.34183881 12.96290559 7.33988953 21.22473145 C7.32440567 22.23338257 7.30892181 23.24203369 7.29296875 24.28125 C7.28872391 25.33534058 7.28447906 26.38943115 7.28010559 27.47546387 C7.26341405 30.81724405 7.22577909 34.1584044 7.1875 37.5 C7.17244088 39.77603291 7.15875463 42.05207535 7.14648438 44.328125 C7.11354165 49.88565275 7.06182504 55.44272155 7 61 C0.73 61 -5.54 61 -12 61 C-12.03738281 58.26589844 -12.07476562 55.53179687 -12.11328125 52.71484375 C-12.15956668 50.05045833 -12.21077474 47.3862095 -12.26245117 44.72192383 C-12.29559026 42.87825912 -12.32365613 41.03449564 -12.34643555 39.19067383 C-12.38018512 36.53163792 -12.43250966 33.87349813 -12.48828125 31.21484375 C-12.49467117 30.39789536 -12.5010611 29.58094696 -12.50764465 28.73924255 C-12.64160141 23.45870213 -13.48514271 19.67590482 -16 15 C-19.42575986 12.50853828 -21.32616479 11.98817833 -25.5625 12.0625 C-29.36962496 13.10080681 -31.25934495 14.18104052 -34 17 C-36.43320264 21.54928679 -36.34377833 25.98594049 -36.4140625 31.01953125 C-36.43342865 31.87810226 -36.4527948 32.73667328 -36.4727478 33.6212616 C-36.53231556 36.35157474 -36.57883734 39.08193057 -36.625 41.8125 C-36.66320079 43.66863773 -36.70225375 45.52475812 -36.7421875 47.38085938 C-36.83959555 51.92048048 -36.91934419 56.4599269 -37 61 C-43.27 61 -49.54 61 -56 61 C-56 39.55 -56 18.1 -56 -4 C-51.38 -4 -46.76 -4 -42 -4 C-41.01 -2.02 -40.02 -0.04 -39 2 C-38.40574219 1.59007813 -37.81148437 1.18015625 -37.19921875 0.7578125 C-26.06906249 -6.47765455 -10.95262346 -9.58354553 0 0 Z " fill="#000000" transform="translate(266,103)"/>
<path d="M0 0 C0.79792969 0.00386719 1.59585937 0.00773437 2.41796875 0.01171875 C3.21589844 0.00785156 4.01382812 0.00398438 4.8359375 0 C10.79136108 0.01011108 10.79136108 0.01011108 11.91796875 1.13671875 C12.03671721 3.29828044 12.08541406 5.4637088 12.10742188 7.62841797 C12.11571518 8.30649506 12.12400848 8.98457214 12.1325531 9.68319702 C12.14998982 11.16026312 12.16514664 12.63735743 12.17832947 14.11446762 C12.19930478 16.45098957 12.22633306 18.78737048 12.25500488 21.12380981 C12.31480088 26.0863922 12.36688481 31.04904006 12.41796875 36.01171875 C12.47716867 41.75397212 12.5394962 47.49615659 12.60984802 53.23828506 C12.6364385 55.54212501 12.65724656 57.84597173 12.67785645 60.14987183 C12.69446137 61.56199471 12.71133337 62.97411449 12.72851562 64.38623047 C12.7410437 65.62009491 12.75357178 66.85395935 12.76647949 68.12521362 C12.7855266 71.18633662 12.7855266 71.18633662 13.91796875 74.13671875 C14.80484375 74.28109375 15.69171875 74.42546875 16.60546875 74.57421875 C19.38914521 75.04691853 22.15280632 75.5674206 24.91796875 76.13671875 C28.36216009 85.54674153 28.36216009 85.54674153 27.91796875 90.13671875 C20.27582937 93.53322514 10.73650535 93.27015338 2.9609375 90.32421875 C-1.74955762 87.58618717 -5.36757231 83.28009557 -7.08203125 78.13671875 C-7.17788621 75.66285001 -7.2185021 73.21745948 -7.21142578 70.74365234 C-7.2131781 69.99379562 -7.21493042 69.2439389 -7.21673584 68.47135925 C-7.22113762 65.99260139 -7.21822284 63.51391484 -7.21484375 61.03515625 C-7.21551713 59.31548041 -7.21648744 57.59580466 -7.21774292 55.87612915 C-7.2192175 52.27320448 -7.21707247 48.6703046 -7.21240234 45.06738281 C-7.20669663 40.43892641 -7.20999089 35.81052789 -7.21597481 31.18207359 C-7.21957956 27.63230957 -7.21844238 24.08255938 -7.21584702 20.53279495 C-7.21517795 18.82547626 -7.21600545 17.11815633 -7.21832657 15.41083908 C-7.22085262 13.03085727 -7.21701359 10.65097076 -7.21142578 8.27099609 C-7.21345001 7.55929764 -7.21547424 6.84759918 -7.21755981 6.11433411 C-7.18951471 -0.29993077 -6.32722007 0.01074231 0 0 Z " fill="#000000" transform="translate(384.08203125,73.86328125)"/>
<path d="M0 0 C0.79792969 0.00386719 1.59585937 0.00773437 2.41796875 0.01171875 C3.21589844 0.00785156 4.01382812 0.00398438 4.8359375 0 C10.79136108 0.01011108 10.79136108 0.01011108 11.91796875 1.13671875 C12.02622377 3.32917608 12.06427704 5.52511617 12.07568359 7.72021484 C12.08330467 8.75196083 12.08330467 8.75196083 12.09107971 9.80455017 C12.10180468 11.30290821 12.11041647 12.80128248 12.11719894 14.29966354 C12.12895409 16.66980206 12.1483979 19.03975555 12.1703186 21.40982056 C12.23204847 28.15010439 12.28600146 34.8903707 12.31933594 41.63085938 C12.34025611 45.74944905 12.37553955 49.86770422 12.42009354 53.98610306 C12.43427751 55.55775647 12.44298137 57.12946909 12.44614792 58.70118332 C12.45104485 60.89929042 12.47416986 63.09650682 12.50146484 65.29443359 C12.5095517 66.54606293 12.51763855 67.79769226 12.52597046 69.08724976 C12.6654858 72.11452495 12.6654858 72.11452495 14.3163147 74.04605103 C16.37770313 75.44978102 17.63516425 75.44570914 20.10546875 75.32421875 C21.36359375 75.26234375 22.62171875 75.20046875 23.91796875 75.13671875 C26.37286191 80.25997404 27.42138578 84.47567286 27.91796875 90.13671875 C20.78064995 93.30886044 12.39826767 93.13238365 4.98046875 90.94921875 C-0.05401507 89.00097366 -2.92378653 86.06740828 -5.69256592 81.45210266 C-7.28356915 77.65583197 -7.49190215 74.44336434 -7.43847656 70.40307617 C-7.44052094 69.65278137 -7.44256531 68.90248657 -7.44467163 68.12945557 C-7.44766305 65.66677932 -7.42925893 63.20478335 -7.41015625 60.7421875 C-7.40709684 59.0268012 -7.4052221 57.31141242 -7.40447998 55.59602356 C-7.39988795 52.01093967 -7.38549921 48.42608179 -7.36328125 44.84106445 C-7.33489286 40.23622274 -7.32405791 35.631558 -7.31959915 31.02663708 C-7.31545327 27.48973306 -7.30564452 23.95286507 -7.29372406 20.41597939 C-7.28801303 18.71703696 -7.28325709 17.01809106 -7.27945709 15.3191433 C-7.27261854 12.95382892 -7.25900062 10.58865771 -7.24316406 8.22338867 C-7.2420462 7.51640335 -7.24092834 6.80941803 -7.23977661 6.08100891 C-7.18280939 -0.30986944 -6.30217858 0.01069979 0 0 Z " fill="#000000" transform="translate(25.08203125,73.86328125)"/>
<path d="M0 0 C3.06048212 1.79636994 4.57072503 3.27803755 6.375 6.3125 C7.21219504 9.91243865 6.89539601 12.41841597 6 16 C4.17660948 18.70567626 2.92542564 20.53728718 0 22 C-4.10661505 22.26928623 -6.96609478 22.39058642 -10.8125 20.9375 C-13.8981411 18.2045036 -14.8943647 15.96727959 -16 12 C-15.72090736 8.29011 -14.8108603 5.09289867 -12.5625 2.0625 C-8.78251644 -0.50788882 -4.40195342 -0.6190247 0 0 Z " fill="#000000" transform="translate(199,73)"/>
</svg>
